# xmcd
#
# Track frame offsets: 
#        150
#        13612
#        25462
#        35862
#        46282
#        58984
#        69066
#        78880
#        91424
#        105127
#
# Disc length: 1542 seconds
#
# Revision: 0
# Processed by: cddbd v1.4PL0 Copyright (c) Steve Scherf et al.
# Submitted via: ExactAudioCopy v0.90b2
#
DISCID=7506040a
DTITLE=David Houston - Greatest Hits (Front Row Entertainment)
DYEAR=1900
DGENRE=Country
TTITLE0=Almost Persuaded
TTITLE1=Already It's Heaven
TTITLE2=Baby, Baby (I Know You're A Lady)
TTITLE3=Have A Little Faith
TTITLE4=(My) Elusive Dream
TTITLE5=With One Exception
TTITLE6=You Mean The World To Me
TTITLE7=Mountain Of Love
TTITLE8=Where Love Used To Live
TTITLE9=I Do My Swinging At Home
EXTD=
EXTT0=
EXTT1=
EXTT2=
EXTT3=
EXTT4=
EXTT5=
EXTT6=
EXTT7=
EXTT8=
EXTT9=
PLAYORDER=
